<svg xmlns="http://www.w3.org/2000/svg" width="180" height="180" viewBox="0 0 180 180">
  <defs>
    <linearGradient id="bdayGradApple" x1="0%" y1="0%" x2="100%" y2="100%">
      <stop offset="0%" style="stop-color:#EC4899"/>
      <stop offset="100%" style="stop-color:#8B5CF6"/>
    </linearGradient>
  </defs>
  <!-- Background -->
  <rect width="180" height="180" rx="40" fill="url(#bdayGradApple)"/>
  <!-- Cake Base -->
  <rect x="40" y="100" width="100" height="50" rx="5" fill="white"/>
  <rect x="50" y="80" width="80" height="24" rx="4" fill="#FDE68A"/>
  <!-- Candles -->
  <rect x="60" y="52" width="8" height="30" rx="2" fill="#60A5FA"/>
  <rect x="86" y="52" width="8" height="30" rx="2" fill="#F472B6"/>
  <rect x="112" y="52" width="8" height="30" rx="2" fill="#34D399"/>
  <!-- Flames -->
  <ellipse cx="64" cy="44" rx="6" ry="10" fill="#FCD34D"/>
  <ellipse cx="90" cy="44" rx="6" ry="10" fill="#FCD34D"/>
  <ellipse cx="116" cy="44" rx="6" ry="10" fill="#FCD34D"/>
  <!-- Frosting dots -->
  <circle cx="55" cy="95" r="4" fill="#F472B6"/>
  <circle cx="75" cy="95" r="4" fill="#60A5FA"/>
  <circle cx="95" cy="95" r="4" fill="#34D399"/>
  <circle cx="115" cy="95" r="4" fill="#FCD34D"/>
  <circle cx="135" cy="95" r="4" fill="#F472B6"/>
</svg>
